<svg xmlns="http://www.w3.org/2000/svg" width="1100" height="420" viewBox="0 0 1100 420" role="img" aria-labelledby="title desc"><title id="title">EMT School</title><desc id="desc">A visual overview of Read, Lab, Scenario, Clinical, Review.</desc><rect width="1100" height="420" rx="28" fill="#eef6ff"/><text x="550" y="78" text-anchor="middle" font-size="42" fill="#10243d" font-family="Arial" font-weight="700">EMT School</text><text x="550" y="118" text-anchor="middle" font-size="21" fill="#4a6078" font-family="Arial">A pre-EMT visual roadmap</text><line x1="142" y1="240" x2="268" y2="240" stroke="#52b788" stroke-width="8" stroke-linecap="round"/><line x1="372" y1="240" x2="498" y2="240" stroke="#52b788" stroke-width="8" stroke-linecap="round"/><line x1="602" y1="240" x2="728" y2="240" stroke="#52b788" stroke-width="8" stroke-linecap="round"/><line x1="832" y1="240" x2="958" y2="240" stroke="#52b788" stroke-width="8" stroke-linecap="round"/><circle cx="90" cy="240" r="52" fill="#0d6efd" opacity=".13"/><circle cx="90" cy="240" r="35" fill="#0d6efd"/><text x="90" y="246" text-anchor="middle" font-size="18" fill="white" font-family="Arial">1</text><text x="90" y="325" text-anchor="middle" font-size="22" fill="#10243d" font-family="Arial" font-weight="700">Read</text><circle cx="320" cy="240" r="52" fill="#0d6efd" opacity=".13"/><circle cx="320" cy="240" r="35" fill="#0d6efd"/><text x="320" y="246" text-anchor="middle" font-size="18" fill="white" font-family="Arial">2</text><text x="320" y="325" text-anchor="middle" font-size="22" fill="#10243d" font-family="Arial" font-weight="700">Lab</text><circle cx="550" cy="240" r="52" fill="#0d6efd" opacity=".13"/><circle cx="550" cy="240" r="35" fill="#0d6efd"/><text x="550" y="246" text-anchor="middle" font-size="18" fill="white" font-family="Arial">3</text><text x="550" y="325" text-anchor="middle" font-size="22" fill="#10243d" font-family="Arial" font-weight="700">Scenario</text><circle cx="780" cy="240" r="52" fill="#0d6efd" opacity=".13"/><circle cx="780" cy="240" r="35" fill="#0d6efd"/><text x="780" y="246" text-anchor="middle" font-size="18" fill="white" font-family="Arial">4</text><text x="780" y="325" text-anchor="middle" font-size="22" fill="#10243d" font-family="Arial" font-weight="700">Clinical</text><circle cx="1010" cy="240" r="52" fill="#0d6efd" opacity=".13"/><circle cx="1010" cy="240" r="35" fill="#0d6efd"/><text x="1010" y="246" text-anchor="middle" font-size="18" fill="white" font-family="Arial">5</text><text x="1010" y="325" text-anchor="middle" font-size="22" fill="#10243d" font-family="Arial" font-weight="700">Review</text></svg>