<svg xmlns="http://www.w3.org/2000/svg" width="1100" height="420" viewBox="0 0 1100 420" role="img" aria-labelledby="title desc"><title id="title">Build Medical Words</title><desc id="desc">A visual overview of Prefix, Root, Suffix, Meaning.</desc><rect width="1100" height="420" rx="28" fill="#eef6ff"/><text x="550" y="78" text-anchor="middle" font-size="42" fill="#10243d" font-family="Arial" font-weight="700">Build Medical Words</text><text x="550" y="118" text-anchor="middle" font-size="21" fill="#4a6078" font-family="Arial">A pre-EMT visual roadmap</text><line x1="142" y1="240" x2="345" y2="240" stroke="#52b788" stroke-width="8" stroke-linecap="round"/><line x1="449" y1="240" x2="651" y2="240" stroke="#52b788" stroke-width="8" stroke-linecap="round"/><line x1="755" y1="240" x2="958" y2="240" stroke="#52b788" stroke-width="8" stroke-linecap="round"/><circle cx="90" cy="240" r="52" fill="#0d6efd" opacity=".13"/><circle cx="90" cy="240" r="35" fill="#0d6efd"/><text x="90" y="246" text-anchor="middle" font-size="18" fill="white" font-family="Arial">1</text><text x="90" y="325" text-anchor="middle" font-size="22" fill="#10243d" font-family="Arial" font-weight="700">Prefix</text><circle cx="397" cy="240" r="52" fill="#0d6efd" opacity=".13"/><circle cx="397" cy="240" r="35" fill="#0d6efd"/><text x="397" y="246" text-anchor="middle" font-size="18" fill="white" font-family="Arial">2</text><text x="397" y="325" text-anchor="middle" font-size="22" fill="#10243d" font-family="Arial" font-weight="700">Root</text><circle cx="703" cy="240" r="52" fill="#0d6efd" opacity=".13"/><circle cx="703" cy="240" r="35" fill="#0d6efd"/><text x="703" y="246" text-anchor="middle" font-size="18" fill="white" font-family="Arial">3</text><text x="703" y="325" text-anchor="middle" font-size="22" fill="#10243d" font-family="Arial" font-weight="700">Suffix</text><circle cx="1010" cy="240" r="52" fill="#0d6efd" opacity=".13"/><circle cx="1010" cy="240" r="35" fill="#0d6efd"/><text x="1010" y="246" text-anchor="middle" font-size="18" fill="white" font-family="Arial">4</text><text x="1010" y="325" text-anchor="middle" font-size="22" fill="#10243d" font-family="Arial" font-weight="700">Meaning</text></svg>